<svg width="201" height="83" viewBox="0 0 201 83" fill="none" xmlns="http://www.w3.org/2000/svg">
<g clip-path="url(#clip0_48_1454)">
<path d="M65.63 52.1C68.24 51.16 67.83 45.61 65.22 45.11C60.98 44.3 61.48 53.58 65.63 52.1Z" fill="white"/>
<path d="M62.6503 35.65C64.2603 34.32 67.1903 30.92 67.2703 28.78C67.3003 28.06 66.2503 27.91 65.6303 27.36C63.1903 25.25 62.9903 22.35 61.7803 19.61C58.2603 11.59 49.7903 8.69 41.5803 11.04C40.7703 11.27 37.7503 12.89 37.5403 12.83C37.3603 12.78 35.7303 10.24 35.3603 9.8C34.5703 8.87 30.3103 4.76 29.2303 4.99C28.9103 5.06 28.4503 8.43 28.4003 8.92C28.1803 11.54 28.3403 14.12 28.9103 16.68C29.1203 17.6 30.6003 21.28 30.5803 21.58C30.5403 22.04 29.2103 24.66 28.8903 25.2C27.5903 27.43 26.1703 29.1 23.5303 29.72C28.3603 32.2 32.1503 28.28 36.9503 28.61C38.6103 28.73 40.6003 29.41 42.0803 30.16C39.9003 29.49 37.8003 29.2 35.5303 29.52C33.1303 29.85 29.7703 32.04 27.8903 32.04H25.5203C33.6903 42.28 52.6703 43.86 62.6303 35.63L62.6503 35.65Z" fill="white"/>
<path d="M27.3098 41.33H15.6598C15.1598 41.33 14.8898 41.95 14.8298 42.37C14.5798 44.02 14.5598 53.38 14.8298 54.97C14.8798 55.28 15.2298 55.91 15.5498 55.91H27.3098V41.33Z" fill="url(#paint0_linear_48_1454)"/>
<path d="M62.6503 35.65C64.6403 34.23 68.1003 30.86 67.2703 28.78C67.0103 28.12 66.4903 28.11 65.6303 27.36C63.1903 25.25 62.9903 22.35 61.7803 19.61C58.2603 11.59 49.7903 8.69 41.5803 11.04C40.7703 11.27 37.7503 12.89 37.5403 12.83C37.3603 12.78 35.7303 10.24 35.3603 9.8C34.5703 8.87 30.3103 4.76 29.2303 4.99C28.9103 5.06 28.4503 8.43 28.4003 8.92C28.1803 11.54 28.3403 14.12 28.9103 16.68C29.1203 17.6 30.6003 21.28 30.5803 21.58C30.5403 22.04 29.2103 24.66 28.8903 25.2C27.5903 27.43 24.9503 29.27 23.5303 29.72C23.5303 29.72 25.0703 30.76 27.5803 30.52C31.2403 30.17 34.5003 28.34 36.9603 28.61C38.9603 28.83 40.6603 29.55 42.0903 30.16C43.0303 30.87 53.9103 41.87 62.6303 35.63L62.6503 35.65Z" fill="#F37722"/>
<path d="M53.5804 32.51C53.8004 32.88 53.2004 33.99 52.9104 34.3C51.5704 35.73 49.3104 35.09 48.0704 33.88C47.6604 33.48 46.9904 31.74 46.1404 32.72C45.4204 33.56 46.7704 35.04 47.4104 35.52C49.6504 37.18 52.5604 36.6 55.0504 36.22C55.9004 36.09 58.1204 35.05 57.6204 33.93C57.2304 33.07 56.2304 34.39 55.7204 34.57C54.0504 35.16 55.4604 33.71 55.1904 32.61C56.8804 31.96 58.6004 29.01 55.9304 28.34C54.2104 27.91 50.0104 28.14 51.2704 30.91C51.7504 31.96 53.5004 32.4 53.5804 32.52V32.51Z" fill="black"/>
<path d="M32.08 10.65C31.85 10.63 31.79 10.61 31.61 10.79C30.83 11.56 31.08 17.61 32.11 18.69C32.27 17.84 35.69 14.51 35.7 14.22C35.72 13.72 32.7 10.7 32.08 10.65Z" fill="black"/>
<path d="M44.9 24.13C43.03 23.89 40.69 25.31 40.92 27.33C41.17 29.5 42.7 26.45 43.82 26.3C45.95 26.02 45.85 27.7 46.64 27.91C48.44 28.39 47.6 24.46 44.9 24.12V24.13Z" fill="black"/>
<path d="M57.2102 27.39C57.3902 27.24 57.6502 26.28 57.9502 25.98C59.6702 24.27 60.7202 27.27 61.2802 26.77C62.2602 25.88 59.6202 21.91 57.1302 24.27C55.9502 25.38 56.0002 28.38 57.2202 27.39H57.2102Z" fill="black"/>
<path d="M42.4397 30.18H42.2197V30.29H42.4397V30.18Z" fill="black"/>
<path d="M18.2203 70.45C18.7503 69.93 18.4903 69 17.7503 68.84C17.3203 68.75 13.2403 68.75 12.7903 68.84C11.6803 69.07 11.7303 70.48 12.9003 70.7C13.5403 70.82 17.8703 70.78 18.2103 70.45H18.2203Z" fill="black"/>
<path d="M19.8304 73.94C19.2004 73.8 16.0904 73.75 15.8004 74.38C14.8204 76.52 20.1704 75.88 20.4604 75.39C20.8204 74.78 20.5204 74.09 19.8404 73.94H19.8304Z" fill="black"/>
<path d="M17.0403 50.94C17.0403 50.94 16.3003 50.79 16.1603 51.44C16.0503 51.96 16.2603 52.36 16.7703 52.47C17.4103 52.61 24.5603 52.61 25.2703 52.47C25.7303 52.38 25.9503 52.27 25.9903 51.75C26.0603 50.73 25.1503 50.99 25.1003 50.92C24.9803 50.79 25.1803 48.76 24.3503 47.53C23.6003 46.42 21.8803 45.96 21.8003 45.83C21.6203 45.51 22.0503 44.44 21.0603 44.41C19.8603 44.37 20.4403 45.43 20.1803 45.85C20.1303 45.93 18.8903 46.37 18.5403 46.64C16.5803 48.11 17.2103 50.72 17.0303 50.93L17.0403 50.94Z" fill="black"/>
<path d="M31.5097 39.46C28.9097 38.15 26.4797 36.4 24.5497 34.22C23.9097 33.49 20.6597 29.22 21.3497 28.47C21.6497 28.14 23.9697 28.04 25.2197 26.71C25.7197 26.18 27.3797 23.21 27.3997 22.59C27.4097 22.31 25.8197 18.37 25.5997 17.37C24.7797 13.7 24.0997 3.98 26.5897 1.02C28.7597 -1.55 34.7297 3.25 36.6397 4.89C37.3397 5.49 40.5497 9.14 40.8497 9.2C41.1497 9.26 44.4497 8.48 45.2597 8.43C46.0697 8.38 50.1497 8.69 50.3897 8.59C50.5397 8.53 52.1497 6.4 52.4897 6.05C54.3297 4.13 60.0897 -1.56 62.8797 0.419999C65.4697 2.26 65.2497 11.4 64.8297 14.3C64.6697 15.44 63.6197 18.51 63.6497 19.18C63.7097 20.51 65.6597 25.07 66.7997 25.98C68.9197 27.69 70.2797 26.32 68.8197 30.22C66.4697 36.51 59.8697 39.85 53.9297 41.89C55.7297 42.47 60.1397 44.83 61.9097 44.4C62.2597 44.31 62.7297 43.75 63.4097 43.58C68.3797 42.34 70.6397 48.87 67.7397 52.44C66.5297 53.92 64.4597 53.8 64.4297 53.98C64.3697 54.35 66.8197 60.73 67.0997 60.97C67.2897 61.13 69.8697 61.42 70.4997 61.6C72.6097 62.22 75.5197 64.56 76.2097 66.71C77.1797 69.68 74.6597 68.53 74.3597 68.95C74.2897 69.04 75.1297 70.52 75.2497 70.99C76.2097 74.77 74.9597 78.67 71.4897 80.66C73.8797 81.09 77.1197 81.48 72.1997 82.09C63.3197 83.2 51.8897 82.85 42.8197 82.76C40.2397 82.74 22.1997 82.5 21.2397 81.59C21.1597 81.52 21.0597 81.43 21.1297 81.32C21.3497 80.95 26.4497 80.74 27.1997 80.76C25.3297 79.43 23.9297 77.53 23.3397 75.29C23.1997 74.77 23.0897 72.79 22.9997 72.7C22.8497 72.55 21.3197 73.12 20.8397 71.71C20.1297 69.6 21.9997 65.16 23.3297 63.42C12.8397 65.24 4.89966 56.56 5.54966 46.36C5.75966 43.1 7.36966 39.66 4.38966 36.91C2.94966 35.58 0.789664 35.72 0.249664 35.3C-0.890336 34.42 2.05966 32.74 2.66966 32.43C8.66966 29.37 16.0297 31.34 19.8797 36.76C20.1997 37.21 21.2497 39.39 21.3897 39.44H31.4997L31.5097 39.46ZM60.2497 14.08C60.3097 14.28 61.8097 15.97 62.0997 16.26C62.9197 14.77 62.4597 4.59 61.5497 4C60.8297 3.54 55.6897 9.88 55.8097 10.57C55.8197 10.64 56.9697 11.28 57.0597 11.27C57.4297 11.22 58.5397 9.32 59.4297 9.77C60.1897 10.15 60.0697 13.47 60.2497 14.08ZM62.6497 35.65C64.2597 34.32 67.1897 30.92 67.2697 28.78C67.2997 28.06 66.2497 27.91 65.6297 27.36C63.1897 25.25 62.9897 22.35 61.7797 19.61C58.2597 11.59 49.7897 8.69 41.5797 11.04C40.7697 11.27 37.7497 12.89 37.5397 12.83C37.3597 12.78 35.7297 10.24 35.3597 9.8C34.5697 8.87 30.3097 4.76 29.2297 4.99C28.9097 5.06 28.4497 8.43 28.3997 8.92C28.1797 11.54 28.3397 14.12 28.9097 16.68C29.1197 17.6 30.5997 21.28 30.5797 21.58C30.5397 22.04 29.2097 24.66 28.8897 25.2C27.5897 27.43 26.1697 29.1 23.5297 29.72C28.3597 32.2 32.1497 28.28 36.9497 28.61C38.6097 28.73 40.5997 29.41 42.0797 30.16C39.8997 29.49 37.7997 29.2 35.5297 29.52C33.1297 29.85 29.7697 32.04 27.8897 32.04H25.5197C33.6897 42.28 52.6697 43.86 62.6297 35.63L62.6497 35.65ZM17.8597 37.26C14.9897 33.57 10.3197 32.1 5.79966 33.36C2.79966 34.19 3.89966 34.03 5.27966 34.93C9.04966 37.4 8.79966 41.9 7.64966 45.76L10.5197 40.79C12.9897 45.48 9.14966 50.78 12.8397 55.15V42.17C12.8397 41.24 14.1397 39.46 15.0997 39.46C15.6397 39.46 19.0797 39.59 19.2397 39.46C19.3397 39.38 17.9797 37.43 17.8497 37.26H17.8597ZM44.0997 49.13C44.1397 48.01 45.3497 46.41 45.3197 46.26C45.2797 46.08 42.6097 44.84 42.0997 44.5C41.2197 43.92 39.4297 42.17 38.7497 41.88C38.4597 41.76 34.2597 40.62 34.0397 40.72C33.8597 40.81 32.9597 43.01 32.8297 43.38C31.1297 47.9 29.9597 55.8 33.9897 59.45C35.1897 60.54 36.6597 60.76 37.7397 62.11C38.8197 63.46 39.0197 65.16 39.7697 66.59C41.0097 68.95 40.6597 67.69 41.3997 66.64C43.0997 64.23 44.9297 65.33 46.3297 62.51C47.4097 60.34 47.3697 57.97 46.0197 55.93C43.7697 52.51 40.3997 54.02 37.7497 51.83C37.0897 51.29 35.1497 48.7 36.2097 47.98C37.0897 47.38 37.4397 48.85 37.9097 49.35C38.9897 50.48 41.1497 51.5 42.7197 51.5C42.9997 51.5 44.5797 51.56 44.6497 51.5C44.7497 51.42 44.0697 49.82 44.0997 49.13ZM29.2997 49.28L31.0697 41.33H29.2997V49.28ZM27.3097 41.33H15.6597C15.1597 41.33 14.8897 41.95 14.8297 42.37C14.5797 44.02 14.5597 53.38 14.8297 54.97C14.8797 55.28 15.2297 55.91 15.5497 55.91H27.3097V41.33ZM52.7097 45.75L51.4197 42.54L43.2097 42.99C45.7597 45.55 49.4397 45.12 52.7097 45.75ZM54.6997 44.2C54.6197 44.29 55.1697 46.13 55.3197 46.18C55.4697 46.23 57.6497 45.31 58.1197 45.52C57.7297 45.41 54.8197 44.06 54.6997 44.2ZM65.6297 52.1C68.2397 51.16 67.8297 45.61 65.2197 45.11C60.9797 44.3 61.4797 53.58 65.6297 52.1ZM52.0497 51.6C52.6897 52.23 54.0897 48.5 52.4897 48.18C53.4397 49.14 51.9197 51.48 52.0497 51.6ZM50.4497 49.06C50.3197 49.06 50.1997 51.36 49.6197 51.6C50.5797 51.61 51.0597 49.06 50.4497 49.06ZM54.5897 54.3C54.6597 54.8 55.4197 55.93 55.5897 56.72C55.9697 58.46 55.8597 60.04 55.0797 61.65C54.7797 62.26 53.2197 63.87 53.2497 64.02C53.2797 64.17 54.7897 65.22 55.0997 66.48C55.1497 66.69 55.0797 67.6 55.1797 67.61C55.6197 67.66 57.8097 62.33 58.4997 61.76C58.6897 61.42 58.7697 61.1 58.7797 60.71C58.7997 60.11 57.0697 52.45 56.7797 52.12C56.6397 51.96 54.9697 51.75 54.8997 51.82C54.8097 51.91 54.5497 54.13 54.5697 54.3H54.5897ZM48.1297 55.47C48.4697 56.08 49.0697 58.43 49.2297 58.45C49.7697 58.51 53.0997 53.52 52.8197 52.87C52.7897 52.79 51.5397 53.08 51.1097 53.04C50.5497 52.99 49.9697 52.65 49.3597 52.64C49.0497 52.64 46.5997 53.14 46.5297 53.26C46.4597 53.37 47.9197 55.09 48.1297 55.47ZM60.7197 61.77C60.6497 62.12 57.7097 67.64 57.3697 68.14C54.6097 72.22 46.6997 71.72 42.1597 71.27C36.5497 70.71 38.6897 64.24 33.4897 62.05C29.0497 60.18 24.9197 63.33 23.4397 67.46C23.2697 67.92 22.4297 70.71 22.6697 70.94C23.1497 71.41 34.4697 70.6 36.0697 71.07C37.5397 72.06 35.7797 72.3 35.7097 72.37C35.4697 72.64 36.4497 73.24 36.6697 73.34C38.2097 74 52.5897 73.88 54.2997 73.24C59.5797 71.25 58.3397 61.95 65.0797 61.33C64.2097 60.13 62.6897 54.01 61.9997 53.35C61.7997 53.16 59.2397 52.61 59.1197 52.72C58.7897 53.04 61.1597 59.66 60.7297 61.78L60.7197 61.77ZM52.0497 58.73C51.4497 59.4 49.2997 60.76 49.1997 60.91C48.9297 61.31 48.8197 63.22 48.1797 63.75C51.0897 63.75 53.8797 61.98 54.0397 58.84C54.0397 58.65 53.9297 56.33 53.4897 56.57C53.3797 56.63 52.4197 58.33 52.0497 58.73ZM29.5197 58.67C29.5597 58.45 28.7497 57.9 28.6897 57.9H15.9297C20.0197 60.58 25.0397 59.39 29.5097 58.67H29.5197ZM66.1297 67.18C67.3697 67.02 73.8297 67.32 74.1297 67.07C74.8797 66.44 70.6997 63.73 70.0197 63.51C63.3097 61.36 60.8697 66.26 59.3297 71.71C61.7297 69.62 62.6497 67.63 66.1197 67.19L66.1297 67.18ZM63.5497 70.41C63.5397 70.6 64.9697 73.69 65.0997 73.84C66.9497 75.86 65.3197 69.88 64.9097 69.73C64.7497 69.67 63.5697 70.11 63.5497 70.41ZM67.1797 75.52C65.8497 76.54 64.2597 75.66 63.5297 74.36C64.2197 79.49 70.8597 76.74 68.8197 72.33C68.6897 72.05 67.5297 70.67 67.2897 70.94C67.1197 71.12 68.7397 74.33 67.1797 75.52ZM28.2597 73.8C28.1497 73.65 27.3497 73.66 27.3097 73.7C26.9397 74.06 27.8197 76.03 28.1497 76.45C29.7497 78.51 32.3297 77.83 33.2797 75.58C32.1497 75.39 30.0297 75.84 29.0297 75.58C28.1597 75.36 28.4397 74.03 28.2597 73.81V73.8ZM38.4397 78.14C37.7797 79.13 36.8497 79.92 35.9197 80.64L63.5297 80.75C62.4597 79.9 61.4097 78.96 60.7197 77.76C60.2697 76.97 59.7897 74.67 59.6597 74.57C59.5997 74.52 58.3897 74.82 58.0597 74.8C57.5797 74.78 56.7097 74.45 56.4297 74.48C55.5397 74.59 54.0697 75.55 52.3197 75.68C50.5697 75.81 40.1297 75.37 39.5797 75.69C39.4597 75.76 38.7697 77.64 38.4397 78.14Z" fill="black"/>
<path d="M64.1302 50.02C65.7202 51.42 66.4602 47.3 64.8902 46.99C63.5502 46.72 63.3002 49.29 64.1302 50.02Z" fill="black"/>
<path d="M98.9799 40.43C98.9799 41.78 98.2999 42.46 96.9499 42.46H93.9099C92.5599 42.46 91.8799 41.78 91.8799 40.43V9.53C91.8799 8.18 92.5599 7.5 93.9099 7.5H111.89C113.24 7.5 113.92 8.18 113.92 9.53V12.62C113.92 13.94 113.26 14.6 111.94 14.6H98.9699V22.4H109.81C111.16 22.4 111.84 23.08 111.84 24.43V27.52C111.84 28.84 111.18 29.5 109.86 29.5H98.9699V40.44L98.9799 40.43Z" fill="black"/>
<path d="M127.85 42.05C125.22 42.05 122.94 41.47 121.04 40.3C119.13 39.13 117.67 37.56 116.66 35.56C115.65 33.57 115.14 31.31 115.14 28.77C115.14 26.23 115.65 23.97 116.66 21.96C117.67 19.95 119.13 18.37 121.04 17.22C122.95 16.07 125.22 15.5 127.85 15.5C130.48 15.5 132.75 16.07 134.64 17.22C136.53 18.37 137.99 19.95 139.02 21.96C140.05 23.97 140.56 26.24 140.56 28.77C140.56 31.3 140.04 33.57 139.02 35.56C137.99 37.55 136.53 39.13 134.64 40.3C132.75 41.46 130.49 42.05 127.85 42.05ZM127.85 34.7C129.4 34.7 130.73 34.25 131.83 33.36C132.93 32.47 133.48 30.94 133.48 28.78C133.48 26.62 132.93 25.09 131.83 24.2C130.73 23.31 129.41 22.86 127.85 22.86C126.29 22.86 124.97 23.31 123.87 24.2C122.77 25.1 122.22 26.62 122.22 28.78C122.22 30.94 122.77 32.47 123.87 33.36C124.97 34.26 126.29 34.7 127.85 34.7Z" fill="black"/>
<path d="M163.71 42.5C163.14 42.91 162.65 43.03 162.24 42.88C161.83 42.73 161.43 42.38 161.02 41.84L155.04 33.94L147.75 41.23C147.28 41.7 146.82 41.99 146.38 42.09C145.94 42.19 145.48 42.01 145.01 41.53L142.48 39.1C141.47 38.09 141.37 37.16 142.18 36.31L150.49 27.95L143.7 18.98C143.29 18.41 143.17 17.92 143.32 17.51C143.47 17.1 143.83 16.7 144.41 16.29L146.99 14.47C147.56 14.06 148.05 13.93 148.46 14.06C148.87 14.2 149.27 14.55 149.68 15.12L155.56 22.87L161.54 16.89C161.98 16.42 162.43 16.15 162.88 16.08C163.34 16.01 163.8 16.22 164.27 16.69L166.8 19.12C167.27 19.56 167.56 20.01 167.66 20.46C167.76 20.92 167.58 21.38 167.1 21.85L160.11 28.84L167 37.96C167.41 38.5 167.53 38.98 167.38 39.4C167.23 39.82 166.86 40.24 166.29 40.64L163.71 42.46V42.5Z" fill="black"/>
<path d="M177.64 39.41C177.64 40.76 176.96 41.44 175.61 41.44H172.57C171.22 41.44 170.54 40.76 170.54 39.41V19.15C170.54 17.8 171.22 17.12 172.57 17.12H175.61C176.96 17.12 177.64 17.8 177.64 19.15V39.41Z" fill="black"/>
<path d="M185.24 42.05C184.09 42.05 183.09 41.62 182.23 40.76C181.37 39.9 180.94 38.88 180.94 37.7C180.94 36.52 181.37 35.51 182.23 34.66C183.09 33.82 184.1 33.39 185.24 33.39C186.38 33.39 187.44 33.81 188.3 34.66C189.16 35.5 189.59 36.52 189.59 37.7C189.59 38.88 189.16 39.9 188.3 40.76C187.44 41.62 186.42 42.05 185.24 42.05Z" fill="black"/>
<path d="M110.28 79.06H106.23C105.55 79.06 105.1 78.84 104.86 78.4C104.83 78.27 104.79 78.13 104.76 77.99C104.73 77.86 104.71 77.7 104.71 77.53V61.93L101.11 62.13C100.57 62.16 100.2 62.03 100 61.72C99.8002 61.41 99.7002 61.03 99.7002 60.56V56.51C99.7002 56.38 99.7002 56.26 99.7302 56.16C99.7502 56.06 99.7902 55.96 99.8602 55.86C100.1 55.18 100.62 54.83 101.43 54.8L104.72 54.6V52.93C104.72 52.59 104.72 52.26 104.75 51.94C104.77 51.62 104.79 51.31 104.83 51C105.24 48.06 106.42 45.78 108.38 44.16C110.34 42.54 112.79 41.83 115.72 42.03L116.48 42.08L117.19 42.13C117.32 42.13 117.46 42.13 117.6 42.16C117.73 42.18 117.85 42.2 117.95 42.24C118.63 42.44 118.98 42.88 119.01 43.56C119.04 43.66 119.05 43.79 119.04 43.94C119.02 44.09 119 44.25 118.96 44.42L118.3 47.81C118.23 48.25 118.06 48.56 117.79 48.75C117.52 48.94 117.15 49.01 116.68 48.98L115.21 48.88C113.86 48.78 112.97 49.11 112.55 49.87C112.13 50.63 111.88 51.7 111.82 53.09V54.15L117.59 53.8C118.16 53.77 118.54 53.9 118.73 54.21C118.92 54.51 119.01 54.9 119.01 55.38V59.43C119.01 59.9 118.85 60.3 118.53 60.62C118.21 60.94 117.8 61.12 117.29 61.15L111.82 61.5V77.56C111.82 78.07 111.69 78.45 111.44 78.7C111.19 78.95 110.81 79.08 110.3 79.08L110.28 79.06ZM133.42 79.67C130.79 79.67 128.51 79.09 126.61 77.92C124.7 76.76 123.24 75.18 122.23 73.18C121.22 71.19 120.71 68.93 120.71 66.39C120.71 63.85 121.22 61.59 122.23 59.58C123.24 57.57 124.7 55.99 126.61 54.84C128.52 53.69 130.79 53.12 133.42 53.12C136.05 53.12 138.32 53.69 140.21 54.84C142.1 55.99 143.56 57.57 144.59 59.58C145.62 61.59 146.13 63.86 146.13 66.39C146.13 68.92 145.61 71.19 144.59 73.18C143.56 75.17 142.1 76.75 140.21 77.92C138.32 79.08 136.06 79.67 133.42 79.67ZM133.42 72.32C134.97 72.32 136.3 71.87 137.4 70.98C138.5 70.09 139.05 68.56 139.05 66.4C139.05 64.24 138.5 62.71 137.4 61.82C136.3 60.93 134.98 60.48 133.42 60.48C131.86 60.48 130.54 60.93 129.44 61.82C128.34 62.72 127.79 64.24 127.79 66.4C127.79 68.56 128.34 70.09 129.44 70.98C130.54 71.88 131.86 72.32 133.42 72.32ZM160.98 79.67C158.35 79.67 156.07 79.09 154.17 77.92C152.26 76.76 150.8 75.18 149.79 73.18C148.78 71.19 148.27 68.93 148.27 66.39C148.27 63.85 148.78 61.59 149.79 59.58C150.8 57.57 152.26 55.99 154.17 54.84C156.08 53.69 158.35 53.12 160.98 53.12C163.61 53.12 165.88 53.69 167.77 54.84C169.66 55.99 171.12 57.57 172.15 59.58C173.18 61.59 173.69 63.86 173.69 66.39C173.69 68.92 173.17 71.19 172.15 73.18C171.12 75.17 169.66 76.75 167.77 77.92C165.88 79.08 163.62 79.67 160.98 79.67ZM160.98 72.32C162.53 72.32 163.86 71.87 164.96 70.98C166.06 70.09 166.61 68.56 166.61 66.4C166.61 64.24 166.06 62.71 164.96 61.82C163.86 60.93 162.54 60.48 160.98 60.48C159.42 60.48 158.1 60.93 157 61.82C155.9 62.72 155.35 64.24 155.35 66.4C155.35 68.56 155.9 70.09 157 70.98C158.1 71.88 159.42 72.32 160.98 72.32ZM198.66 80.07H195.62C194.27 80.07 193.59 79.39 193.59 78.04V76.17C192.71 77.12 191.66 77.83 190.42 78.32C189.19 78.81 187.88 79.05 186.49 79.05C184.53 79.05 182.74 78.52 181.12 77.45C179.5 76.38 178.21 74.88 177.25 72.92C176.29 70.96 175.81 68.68 175.81 66.08C175.81 63.48 176.38 61.12 177.51 59.19C178.64 57.27 180.17 55.77 182.09 54.71C184.01 53.65 186.16 53.11 188.52 53.11C189.4 53.11 190.25 53.16 191.08 53.26C191.91 53.36 192.74 53.51 193.59 53.72V44.6C193.59 43.25 194.27 42.57 195.62 42.57H198.66C200.01 42.57 200.69 43.25 200.69 44.6V78.03C200.69 79.38 200.01 80.06 198.66 80.06V80.07ZM187.97 71.71C189.15 71.71 190.16 71.45 191.01 70.92C191.85 70.4 192.5 69.63 192.93 68.62C193.37 67.61 193.59 66.39 193.59 64.97V61.17C192.85 60.9 192.06 60.71 191.23 60.59C190.4 60.47 189.5 60.41 188.52 60.41C186.9 60.41 185.56 60.88 184.49 61.83C183.43 62.78 182.89 64.19 182.89 66.08C182.89 67.16 183.1 68.13 183.52 68.99C183.94 69.85 184.53 70.52 185.29 70.99C186.05 71.46 186.94 71.7 187.95 71.7L187.97 71.71Z" fill="url(#paint1_linear_48_1454)"/>
<path d="M174.17 4.77C181.07 4.3 181.33 12.37 176.78 14.55C174.47 15.66 172.51 14.5 171.85 13.89C170.52 12.65 169.36 11.3 171.7 9.59C173.4 8.34 173.22 11.72 176.59 9.66C178.49 8.5 177.71 5.72 174.17 4.77Z" fill="url(#paint2_linear_48_1454)"/>
<path d="M44.1005 49.13C44.1405 48.01 45.3505 46.41 45.3205 46.26C45.2805 46.08 42.6105 44.84 42.1005 44.5C41.2205 43.92 39.4305 42.17 38.7505 41.88C38.4605 41.76 34.2605 40.62 34.0405 40.72C33.8605 40.81 32.9605 43.01 32.8305 43.38C31.1305 47.9 29.9605 55.8 33.9905 59.45C35.1905 60.54 36.6605 60.76 37.7405 62.11C38.8205 63.46 39.0205 65.16 39.7705 66.59C41.0105 68.95 40.6605 67.69 41.4005 66.64C43.1005 64.23 44.9305 65.33 46.3305 62.51C47.4105 60.34 47.3705 57.97 46.0205 55.93C43.7705 52.51 40.4005 54.02 37.7505 51.83C37.0905 51.29 35.1505 48.7 36.2105 47.98C37.0905 47.38 37.4405 48.85 37.9105 49.35C38.9905 50.48 41.1505 51.5 42.7205 51.5C43.0005 51.5 44.5805 51.56 44.6505 51.5C44.7505 51.42 44.0705 49.82 44.1005 49.13Z" fill="url(#paint3_linear_48_1454)"/>
<path d="M52.0497 58.73C51.4497 59.4 49.2997 60.76 49.1997 60.91C48.9297 61.31 48.8197 63.22 48.1797 63.75C51.0897 63.75 53.8797 61.98 54.0397 58.84C54.0397 58.65 53.9297 56.33 53.4897 56.57C53.3797 56.63 52.4197 58.33 52.0497 58.73Z" fill="url(#paint4_linear_48_1454)"/>
<path d="M60.7198 61.77C60.6498 62.12 57.7098 67.64 57.3698 68.14C54.6098 72.22 46.6998 71.72 42.1598 71.27C36.5498 70.71 38.6898 64.24 33.4898 62.05C29.0498 60.18 24.9198 63.33 23.4398 67.46C23.2698 67.92 22.4298 70.71 22.6698 70.94C23.1498 71.41 34.4698 70.6 36.0698 71.07C37.5398 72.06 35.7798 72.3 35.7098 72.37C35.4698 72.64 36.4497 73.24 36.6698 73.34C38.2098 74 52.5898 73.88 54.2998 73.24C59.5798 71.25 58.3398 61.95 65.0798 61.33C64.2098 60.13 62.6898 54.01 61.9998 53.35C61.7998 53.16 59.2397 52.61 59.1198 52.72C58.7897 53.04 61.1598 59.66 60.7298 61.78L60.7198 61.77Z" fill="url(#paint5_linear_48_1454)"/>
<path d="M66.1301 67.18C67.3701 67.02 73.8301 67.32 74.1301 67.07C74.8801 66.44 70.7001 63.73 70.0201 63.51C63.3101 61.36 60.8701 66.26 59.3301 71.71C61.7301 69.62 62.6501 67.63 66.1201 67.19L66.1301 67.18Z" fill="url(#paint6_linear_48_1454)"/>
<path d="M54.7003 44.2C54.6203 44.29 55.1703 46.13 55.3203 46.18C55.4703 46.23 57.6503 45.31 58.1203 45.52C57.7303 45.41 54.8203 44.06 54.7003 44.2Z" fill="url(#paint7_linear_48_1454)"/>
<path d="M17.8602 37.26C14.9902 33.57 10.3202 32.1 5.80019 33.36C2.80019 34.19 3.90019 34.03 5.28019 34.93C9.05019 37.4 8.80019 41.9 7.65019 45.76L10.5202 40.79C12.9902 45.48 9.15019 50.78 12.8402 55.15V42.17C12.8402 41.24 14.1402 39.46 15.1002 39.46C15.6402 39.46 19.0802 39.59 19.2402 39.46C19.3402 39.38 17.9802 37.43 17.8502 37.26H17.8602Z" fill="#F37722"/>
<path d="M29.5197 58.67C29.5597 58.45 28.7497 57.9 28.6897 57.9H15.9297C20.0197 60.58 25.0397 59.39 29.5097 58.67H29.5197Z" fill="url(#paint8_linear_48_1454)"/>
<path d="M29.2998 49.28L31.0598 41.33H29.2998V49.28Z" fill="#5A57A5"/>
<path d="M60.2497 14.08C60.3097 14.28 61.8097 15.97 62.0997 16.26C62.9197 14.77 62.4597 4.59 61.5497 4C60.8297 3.54 55.6897 9.88 55.8097 10.57C55.8197 10.64 56.9697 11.28 57.0597 11.27C57.4297 11.22 58.5397 9.32 59.4297 9.77C60.1897 10.15 60.0697 13.47 60.2497 14.08Z" fill="url(#paint9_linear_48_1454)"/>
<path d="M48.1298 55.47C48.4698 56.08 49.0698 58.43 49.2298 58.45C49.7698 58.51 53.0998 53.52 52.8198 52.87C52.7898 52.79 51.5398 53.08 51.1098 53.04C50.5498 52.99 49.9698 52.65 49.3598 52.64C49.0498 52.64 46.5998 53.14 46.5298 53.26C46.4598 53.37 47.9198 55.09 48.1298 55.47Z" fill="white"/>
<path d="M52.71 45.75L51.42 42.54L43.21 42.99C45.76 45.55 49.44 45.12 52.71 45.75Z" fill="white"/>
<path d="M67.1803 75.52C65.8503 76.54 64.2603 75.66 63.5303 74.36C64.2203 79.49 70.8603 76.74 68.8203 72.33C68.6903 72.05 67.5303 70.67 67.2903 70.94C67.1203 71.12 68.7403 74.33 67.1803 75.52Z" fill="white"/>
<path d="M63.5499 70.41C63.5399 70.6 64.9699 73.69 65.0999 73.84C66.9499 75.86 65.3199 69.88 64.9099 69.73C64.7499 69.67 63.5699 70.11 63.5499 70.41Z" fill="white"/>
<path d="M28.2599 73.8C28.1499 73.65 27.3499 73.66 27.3099 73.7C26.9399 74.06 27.8199 76.03 28.1499 76.45C29.7499 78.51 32.3299 77.83 33.2799 75.58C32.1499 75.39 30.0299 75.84 29.0299 75.58C28.1599 75.36 28.4399 74.03 28.2599 73.81V73.8Z" fill="white"/>
</g>
<defs>
<linearGradient id="paint0_linear_48_1454" x1="16.6898" y1="40.65" x2="25.9598" y2="56.69" gradientUnits="userSpaceOnUse">
<stop stop-color="#5A57A5"/>
<stop offset="1" stop-color="#463794"/>
</linearGradient>
<linearGradient id="paint1_linear_48_1454" x1="134.25" y1="29.06" x2="172.63" y2="95.53" gradientUnits="userSpaceOnUse">
<stop stop-color="#5A57A5"/>
<stop offset="1" stop-color="#463794"/>
</linearGradient>
<linearGradient id="paint2_linear_48_1454" x1="172.57" y1="5.7" x2="177.46" y2="14.18" gradientUnits="userSpaceOnUse">
<stop stop-color="#F37722"/>
<stop offset="1" stop-color="#B15526"/>
</linearGradient>
<linearGradient id="paint3_linear_48_1454" x1="32.8505" y1="41.4" x2="46.3005" y2="64.7" gradientUnits="userSpaceOnUse">
<stop stop-color="#F37722"/>
<stop offset="1" stop-color="#B15526"/>
</linearGradient>
<linearGradient id="paint4_linear_48_1454" x1="49.9997" y1="58.59" x2="52.2497" y2="62.47" gradientUnits="userSpaceOnUse">
<stop stop-color="#F37722"/>
<stop offset="1" stop-color="#B15526"/>
</linearGradient>
<linearGradient id="paint5_linear_48_1454" x1="38.7498" y1="55.91" x2="50.1798" y2="75.69" gradientUnits="userSpaceOnUse">
<stop stop-color="#5A57A5"/>
<stop offset="1" stop-color="#463794"/>
</linearGradient>
<linearGradient id="paint6_linear_48_1454" x1="63.7301" y1="63.93" x2="67.6901" y2="70.79" gradientUnits="userSpaceOnUse">
<stop stop-color="#5A57A5"/>
<stop offset="1" stop-color="#463794"/>
</linearGradient>
<linearGradient id="paint7_linear_48_1454" x1="55.4903" y1="43.75" x2="56.9203" y2="46.22" gradientUnits="userSpaceOnUse">
<stop stop-color="#F37722"/>
<stop offset="1" stop-color="#B15526"/>
</linearGradient>
<linearGradient id="paint8_linear_48_1454" x1="20.8697" y1="55.05" x2="24.5997" y2="61.51" gradientUnits="userSpaceOnUse">
<stop stop-color="#F37722"/>
<stop offset="1" stop-color="#B15526"/>
</linearGradient>
<linearGradient id="paint9_linear_48_1454" x1="57.9197" y1="5.95" x2="63.4297" y2="15.49" gradientUnits="userSpaceOnUse">
<stop stop-color="#F37722"/>
<stop offset="1" stop-color="#B15526"/>
</linearGradient>
<clipPath id="clip0_48_1454">
<rect width="200.69" height="82.88" fill="white"/>
</clipPath>
</defs>
</svg>
