<svg width="201" height="83" viewBox="0 0 201 83" fill="none" xmlns="http://www.w3.org/2000/svg">
<g clip-path="url(#clip0_46_3221)">
<path d="M65.63 52.1C68.24 51.16 67.83 45.61 65.22 45.11C60.98 44.3 61.48 53.58 65.63 52.1Z" fill="white"/>
<path d="M62.6498 35.65C64.2598 34.32 67.1898 30.92 67.2698 28.78C67.2998 28.06 66.2498 27.91 65.6298 27.36C63.1898 25.25 62.9898 22.35 61.7798 19.61C58.2598 11.59 49.7898 8.69 41.5798 11.04C40.7698 11.27 37.7498 12.89 37.5398 12.83C37.3598 12.78 35.7298 10.24 35.3598 9.8C34.5698 8.87 30.3098 4.76 29.2298 4.99C28.9098 5.06 28.4498 8.43 28.3998 8.92C28.1798 11.54 28.3398 14.12 28.9098 16.68C29.1198 17.6 30.5998 21.28 30.5798 21.58C30.5398 22.04 29.2098 24.66 28.8898 25.2C27.5898 27.43 26.1698 29.1 23.5298 29.72C28.3598 32.2 32.1498 28.28 36.9498 28.61C38.6098 28.73 40.5998 29.41 42.0798 30.16C39.8998 29.49 37.7998 29.2 35.5298 29.52C33.1298 29.85 29.7698 32.04 27.8898 32.04H25.5198C33.6898 42.28 52.6698 43.86 62.6298 35.63L62.6498 35.65Z" fill="white"/>
<path d="M27.3098 41.33H15.6598C15.1598 41.33 14.8898 41.95 14.8298 42.37C14.5798 44.02 14.5598 53.38 14.8298 54.97C14.8798 55.28 15.2298 55.91 15.5498 55.91H27.3098V41.33Z" fill="url(#paint0_linear_46_3221)"/>
<path d="M62.6498 35.65C64.6398 34.23 68.0998 30.86 67.2698 28.78C67.0098 28.12 66.4898 28.11 65.6298 27.36C63.1898 25.25 62.9898 22.35 61.7798 19.61C58.2598 11.59 49.7898 8.69 41.5798 11.04C40.7698 11.27 37.7498 12.89 37.5398 12.83C37.3598 12.78 35.7298 10.24 35.3598 9.8C34.5698 8.87 30.3098 4.76 29.2298 4.99C28.9098 5.06 28.4498 8.43 28.3998 8.92C28.1798 11.54 28.3398 14.12 28.9098 16.68C29.1198 17.6 30.5998 21.28 30.5798 21.58C30.5398 22.04 29.2098 24.66 28.8898 25.2C27.5898 27.43 24.9498 29.27 23.5298 29.72C23.5298 29.72 25.0698 30.76 27.5798 30.52C31.2398 30.17 34.4998 28.34 36.9598 28.61C38.9598 28.83 40.6598 29.55 42.0898 30.16C43.0298 30.87 53.9098 41.87 62.6298 35.63L62.6498 35.65Z" fill="#F37722"/>
<path d="M53.5799 32.51C53.7999 32.88 53.1999 33.99 52.9099 34.3C51.5699 35.73 49.3099 35.09 48.0699 33.88C47.6599 33.48 46.9899 31.74 46.1399 32.72C45.4199 33.56 46.7699 35.04 47.4099 35.52C49.6499 37.18 52.5599 36.6 55.0499 36.22C55.8999 36.09 58.1199 35.05 57.6199 33.93C57.2299 33.07 56.2299 34.39 55.7199 34.57C54.0499 35.16 55.4599 33.71 55.1899 32.61C56.8799 31.96 58.5999 29.01 55.9299 28.34C54.2099 27.91 50.0099 28.14 51.2699 30.91C51.7499 31.96 53.4999 32.4 53.5799 32.52V32.51Z" fill="black"/>
<path d="M32.08 10.65C31.85 10.63 31.79 10.61 31.61 10.79C30.83 11.56 31.08 17.61 32.11 18.69C32.27 17.84 35.69 14.51 35.7 14.22C35.72 13.72 32.7 10.7 32.08 10.65Z" fill="black"/>
<path d="M44.9 24.13C43.03 23.89 40.69 25.31 40.92 27.33C41.17 29.5 42.7 26.45 43.82 26.3C45.95 26.02 45.85 27.7 46.64 27.91C48.44 28.39 47.6 24.46 44.9 24.12V24.13Z" fill="black"/>
<path d="M57.2102 27.39C57.3902 27.24 57.6502 26.28 57.9502 25.98C59.6702 24.27 60.7202 27.27 61.2802 26.77C62.2602 25.88 59.6202 21.91 57.1302 24.27C55.9502 25.38 56.0002 28.38 57.2202 27.39H57.2102Z" fill="black"/>
<path d="M42.4402 30.18H42.2202V30.29H42.4402V30.18Z" fill="black"/>
<path d="M18.2198 70.45C18.7498 69.93 18.4898 69 17.7498 68.84C17.3198 68.75 13.2398 68.75 12.7898 68.84C11.6798 69.07 11.7298 70.48 12.8998 70.7C13.5398 70.82 17.8698 70.78 18.2098 70.45H18.2198Z" fill="black"/>
<path d="M19.8299 73.94C19.1999 73.8 16.0899 73.75 15.7999 74.38C14.8199 76.52 20.1699 75.88 20.4599 75.39C20.8199 74.78 20.5199 74.09 19.8399 73.94H19.8299Z" fill="black"/>
<path d="M17.0398 50.94C17.0398 50.94 16.2998 50.79 16.1598 51.44C16.0498 51.96 16.2598 52.36 16.7698 52.47C17.4098 52.61 24.5598 52.61 25.2698 52.47C25.7298 52.38 25.9498 52.27 25.9898 51.75C26.0598 50.73 25.1498 50.99 25.0998 50.92C24.9798 50.79 25.1798 48.76 24.3498 47.53C23.5998 46.42 21.8798 45.96 21.7998 45.83C21.6198 45.51 22.0498 44.44 21.0598 44.41C19.8598 44.37 20.4398 45.43 20.1798 45.85C20.1298 45.93 18.8898 46.37 18.5398 46.64C16.5798 48.11 17.2098 50.72 17.0298 50.93L17.0398 50.94Z" fill="black"/>
<path d="M31.5102 39.46C28.9102 38.15 26.4802 36.4 24.5502 34.22C23.9102 33.49 20.6602 29.22 21.3502 28.47C21.6502 28.14 23.9702 28.04 25.2202 26.71C25.7202 26.18 27.3802 23.21 27.4002 22.59C27.4102 22.31 25.8202 18.37 25.6002 17.37C24.7802 13.7 24.1002 3.98 26.5902 1.02C28.7602 -1.55 34.7302 3.25 36.6402 4.89C37.3402 5.49 40.5502 9.14 40.8502 9.2C41.1502 9.26 44.4501 8.48 45.2602 8.43C46.0702 8.38 50.1502 8.69 50.3902 8.59C50.5402 8.53 52.1502 6.4 52.4902 6.05C54.3302 4.13 60.0902 -1.56 62.8802 0.419999C65.4702 2.26 65.2502 11.4 64.8302 14.3C64.6702 15.44 63.6202 18.51 63.6502 19.18C63.7102 20.51 65.6602 25.07 66.8002 25.98C68.9202 27.69 70.2802 26.32 68.8202 30.22C66.4702 36.51 59.8702 39.85 53.9302 41.89C55.7302 42.47 60.1402 44.83 61.9102 44.4C62.2602 44.31 62.7302 43.75 63.4102 43.58C68.3801 42.34 70.6402 48.87 67.7402 52.44C66.5302 53.92 64.4602 53.8 64.4302 53.98C64.3702 54.35 66.8202 60.73 67.1002 60.97C67.2902 61.13 69.8702 61.42 70.5002 61.6C72.6102 62.22 75.5201 64.56 76.2102 66.71C77.1802 69.68 74.6602 68.53 74.3602 68.95C74.2902 69.04 75.1301 70.52 75.2502 70.99C76.2102 74.77 74.9602 78.67 71.4902 80.66C73.8801 81.09 77.1201 81.48 72.2001 82.09C63.3201 83.2 51.8902 82.85 42.8202 82.76C40.2402 82.74 22.2002 82.5 21.2402 81.59C21.1602 81.52 21.0602 81.43 21.1302 81.32C21.3502 80.95 26.4502 80.74 27.2002 80.76C25.3302 79.43 23.9302 77.53 23.3402 75.29C23.2002 74.77 23.0902 72.79 23.0002 72.7C22.8502 72.55 21.3202 73.12 20.8402 71.71C20.1302 69.6 22.0002 65.16 23.3302 63.42C12.8402 65.24 4.90015 56.56 5.55015 46.36C5.76015 43.1 7.37015 39.66 4.39015 36.91C2.95015 35.58 0.790152 35.72 0.250152 35.3C-0.889848 34.42 2.06015 32.74 2.67015 32.43C8.67015 29.37 16.0302 31.34 19.8802 36.76C20.2002 37.21 21.2502 39.39 21.3902 39.44H31.5002L31.5102 39.46ZM60.2502 14.08C60.3102 14.28 61.8102 15.97 62.1002 16.26C62.9202 14.77 62.4602 4.59 61.5502 4C60.8302 3.54 55.6902 9.88 55.8102 10.57C55.8202 10.64 56.9702 11.28 57.0602 11.27C57.4302 11.22 58.5402 9.32 59.4302 9.77C60.1902 10.15 60.0702 13.47 60.2502 14.08ZM62.6502 35.65C64.2602 34.32 67.1901 30.92 67.2701 28.78C67.3001 28.06 66.2502 27.91 65.6301 27.36C63.1902 25.25 62.9902 22.35 61.7802 19.61C58.2602 11.59 49.7902 8.69 41.5802 11.04C40.7702 11.27 37.7502 12.89 37.5402 12.83C37.3602 12.78 35.7302 10.24 35.3602 9.8C34.5702 8.87 30.3102 4.76 29.2302 4.99C28.9102 5.06 28.4502 8.43 28.4002 8.92C28.1802 11.54 28.3402 14.12 28.9102 16.68C29.1202 17.6 30.6002 21.28 30.5802 21.58C30.5402 22.04 29.2102 24.66 28.8902 25.2C27.5902 27.43 26.1702 29.1 23.5302 29.72C28.3602 32.2 32.1502 28.28 36.9502 28.61C38.6102 28.73 40.6002 29.41 42.0802 30.16C39.9002 29.49 37.8002 29.2 35.5302 29.52C33.1301 29.85 29.7702 32.04 27.8902 32.04H25.5202C33.6902 42.28 52.6702 43.86 62.6302 35.63L62.6502 35.65ZM17.8602 37.26C14.9902 33.57 10.3202 32.1 5.80015 33.36C2.80015 34.19 3.90015 34.03 5.28015 34.93C9.05015 37.4 8.80015 41.9 7.65015 45.76L10.5202 40.79C12.9902 45.48 9.15015 50.78 12.8402 55.15V42.17C12.8402 41.24 14.1402 39.46 15.1002 39.46C15.6402 39.46 19.0802 39.59 19.2402 39.46C19.3402 39.38 17.9802 37.43 17.8502 37.26H17.8602ZM44.1002 49.13C44.1402 48.01 45.3502 46.41 45.3202 46.26C45.2802 46.08 42.6101 44.84 42.1002 44.5C41.2201 43.92 39.4302 42.17 38.7502 41.88C38.4602 41.76 34.2602 40.62 34.0402 40.72C33.8602 40.81 32.9602 43.01 32.8302 43.38C31.1302 47.9 29.9602 55.8 33.9902 59.45C35.1902 60.54 36.6602 60.76 37.7402 62.11C38.8202 63.46 39.0202 65.16 39.7702 66.59C41.0102 68.95 40.6602 67.69 41.4002 66.64C43.1002 64.23 44.9302 65.33 46.3302 62.51C47.4102 60.34 47.3702 57.97 46.0202 55.93C43.7702 52.51 40.4002 54.02 37.7502 51.83C37.0902 51.29 35.1502 48.7 36.2102 47.98C37.0902 47.38 37.4402 48.85 37.9102 49.35C38.9902 50.48 41.1502 51.5 42.7202 51.5C43.0002 51.5 44.5802 51.56 44.6502 51.5C44.7502 51.42 44.0702 49.82 44.1002 49.13ZM29.3002 49.28L31.0702 41.33H29.3002V49.28ZM27.3102 41.33H15.6602C15.1602 41.33 14.8902 41.95 14.8302 42.37C14.5802 44.02 14.5602 53.38 14.8302 54.97C14.8802 55.28 15.2302 55.91 15.5502 55.91H27.3102V41.33ZM52.7102 45.75L51.4202 42.54L43.2102 42.99C45.7602 45.55 49.4402 45.12 52.7102 45.75ZM54.7002 44.2C54.6202 44.29 55.1702 46.13 55.3202 46.18C55.4702 46.23 57.6502 45.31 58.1202 45.52C57.7302 45.41 54.8202 44.06 54.7002 44.2ZM65.6301 52.1C68.2402 51.16 67.8302 45.61 65.2202 45.11C60.9802 44.3 61.4801 53.58 65.6301 52.1ZM52.0502 51.6C52.6902 52.23 54.0902 48.5 52.4902 48.18C53.4402 49.14 51.9202 51.48 52.0502 51.6ZM50.4502 49.06C50.3202 49.06 50.2002 51.36 49.6202 51.6C50.5802 51.61 51.0602 49.06 50.4502 49.06ZM54.5902 54.3C54.6602 54.8 55.4202 55.93 55.5902 56.72C55.9702 58.46 55.8602 60.04 55.0802 61.65C54.7802 62.26 53.2202 63.87 53.2502 64.02C53.2802 64.17 54.7901 65.22 55.1002 66.48C55.1502 66.69 55.0802 67.6 55.1802 67.61C55.6202 67.66 57.8102 62.33 58.5002 61.76C58.6902 61.42 58.7702 61.1 58.7802 60.71C58.8002 60.11 57.0702 52.45 56.7802 52.12C56.6402 51.96 54.9702 51.75 54.9002 51.82C54.8102 51.91 54.5502 54.13 54.5702 54.3H54.5902ZM48.1302 55.47C48.4702 56.08 49.0702 58.43 49.2302 58.45C49.7702 58.51 53.1002 53.52 52.8202 52.87C52.7902 52.79 51.5402 53.08 51.1102 53.04C50.5502 52.99 49.9702 52.65 49.3602 52.64C49.0502 52.64 46.6002 53.14 46.5302 53.26C46.4602 53.37 47.9202 55.09 48.1302 55.47ZM60.7202 61.77C60.6502 62.12 57.7102 67.64 57.3702 68.14C54.6102 72.22 46.7002 71.72 42.1602 71.27C36.5502 70.71 38.6902 64.24 33.4902 62.05C29.0502 60.18 24.9202 63.33 23.4402 67.46C23.2702 67.92 22.4302 70.71 22.6702 70.94C23.1502 71.41 34.4702 70.6 36.0702 71.07C37.5402 72.06 35.7802 72.3 35.7102 72.37C35.4701 72.64 36.4501 73.24 36.6702 73.34C38.2102 74 52.5902 73.88 54.3002 73.24C59.5802 71.25 58.3402 61.95 65.0802 61.33C64.2102 60.13 62.6902 54.01 62.0002 53.35C61.8002 53.16 59.2402 52.61 59.1202 52.72C58.7901 53.04 61.1602 59.66 60.7302 61.78L60.7202 61.77ZM52.0502 58.73C51.4502 59.4 49.3002 60.76 49.2002 60.91C48.9302 61.31 48.8202 63.22 48.1802 63.75C51.0902 63.75 53.8802 61.98 54.0402 58.84C54.0402 58.65 53.9302 56.33 53.4902 56.57C53.3802 56.63 52.4202 58.33 52.0502 58.73ZM29.5202 58.67C29.5602 58.45 28.7502 57.9 28.6902 57.9H15.9302C20.0202 60.58 25.0402 59.39 29.5102 58.67H29.5202ZM66.1301 67.18C67.3701 67.02 73.8301 67.32 74.1301 67.07C74.8801 66.44 70.7001 63.73 70.0201 63.51C63.3102 61.36 60.8702 66.26 59.3302 71.71C61.7302 69.62 62.6502 67.63 66.1202 67.19L66.1301 67.18ZM63.5502 70.41C63.5402 70.6 64.9702 73.69 65.1002 73.84C66.9501 75.86 65.3202 69.88 64.9102 69.73C64.7502 69.67 63.5702 70.11 63.5502 70.41ZM67.1802 75.52C65.8502 76.54 64.2602 75.66 63.5302 74.36C64.2202 79.49 70.8602 76.74 68.8202 72.33C68.6902 72.05 67.5302 70.67 67.2902 70.94C67.1202 71.12 68.7402 74.33 67.1802 75.52ZM28.2602 73.8C28.1502 73.65 27.3502 73.66 27.3102 73.7C26.9402 74.06 27.8202 76.03 28.1502 76.45C29.7502 78.51 32.3302 77.83 33.2802 75.58C32.1502 75.39 30.0302 75.84 29.0302 75.58C28.1602 75.36 28.4402 74.03 28.2602 73.81V73.8ZM38.4402 78.14C37.7802 79.13 36.8502 79.92 35.9202 80.64L63.5302 80.75C62.4602 79.9 61.4102 78.96 60.7202 77.76C60.2702 76.97 59.7902 74.67 59.6602 74.57C59.6002 74.52 58.3902 74.82 58.0602 74.8C57.5802 74.78 56.7102 74.45 56.4302 74.48C55.5402 74.59 54.0702 75.55 52.3202 75.68C50.5702 75.81 40.1302 75.37 39.5802 75.69C39.4602 75.76 38.7702 77.64 38.4402 78.14Z" fill="black"/>
<path d="M64.1302 50.02C65.7202 51.42 66.4602 47.3 64.8902 46.99C63.5502 46.72 63.3002 49.29 64.1302 50.02Z" fill="black"/>
<path d="M98.9799 40.43C98.9799 41.78 98.2999 42.46 96.9499 42.46H93.9099C92.5599 42.46 91.8799 41.78 91.8799 40.43V9.53C91.8799 8.18 92.5599 7.5 93.9099 7.5H111.89C113.24 7.5 113.92 8.18 113.92 9.53V12.62C113.92 13.94 113.26 14.6 111.94 14.6H98.9699V22.4H109.81C111.16 22.4 111.84 23.08 111.84 24.43V27.52C111.84 28.84 111.18 29.5 109.86 29.5H98.9699V40.44L98.9799 40.43Z" fill="black"/>
<path d="M127.85 42.05C125.22 42.05 122.94 41.47 121.04 40.3C119.13 39.13 117.67 37.56 116.66 35.56C115.65 33.57 115.14 31.31 115.14 28.77C115.14 26.23 115.65 23.97 116.66 21.96C117.67 19.95 119.13 18.37 121.04 17.22C122.95 16.07 125.22 15.5 127.85 15.5C130.48 15.5 132.75 16.07 134.64 17.22C136.53 18.37 137.99 19.95 139.02 21.96C140.05 23.97 140.56 26.24 140.56 28.77C140.56 31.3 140.04 33.57 139.02 35.56C137.99 37.55 136.53 39.13 134.64 40.3C132.75 41.46 130.49 42.05 127.85 42.05ZM127.85 34.7C129.4 34.7 130.73 34.25 131.83 33.36C132.93 32.47 133.48 30.94 133.48 28.78C133.48 26.62 132.93 25.09 131.83 24.2C130.73 23.31 129.41 22.86 127.85 22.86C126.29 22.86 124.97 23.31 123.87 24.2C122.77 25.1 122.22 26.62 122.22 28.78C122.22 30.94 122.77 32.47 123.87 33.36C124.97 34.26 126.29 34.7 127.85 34.7Z" fill="black"/>
<path d="M163.71 42.5C163.14 42.91 162.65 43.03 162.24 42.88C161.83 42.73 161.43 42.38 161.02 41.84L155.04 33.94L147.75 41.23C147.28 41.7 146.82 41.99 146.38 42.09C145.94 42.19 145.48 42.01 145.01 41.53L142.48 39.1C141.47 38.09 141.37 37.16 142.18 36.31L150.49 27.95L143.7 18.98C143.29 18.41 143.17 17.92 143.32 17.51C143.47 17.1 143.83 16.7 144.41 16.29L146.99 14.47C147.56 14.06 148.05 13.93 148.46 14.06C148.87 14.2 149.27 14.55 149.68 15.12L155.56 22.87L161.54 16.89C161.98 16.42 162.43 16.15 162.88 16.08C163.34 16.01 163.8 16.22 164.27 16.69L166.8 19.12C167.27 19.56 167.56 20.01 167.66 20.46C167.76 20.92 167.58 21.38 167.1 21.85L160.11 28.84L167 37.96C167.41 38.5 167.53 38.98 167.38 39.4C167.23 39.82 166.86 40.24 166.29 40.64L163.71 42.46V42.5Z" fill="black"/>
<path d="M177.64 39.41C177.64 40.76 176.96 41.44 175.61 41.44H172.57C171.22 41.44 170.54 40.76 170.54 39.41V19.15C170.54 17.8 171.22 17.12 172.57 17.12H175.61C176.96 17.12 177.64 17.8 177.64 19.15V39.41Z" fill="black"/>
<path d="M185.24 42.05C184.09 42.05 183.09 41.62 182.23 40.76C181.37 39.9 180.94 38.88 180.94 37.7C180.94 36.52 181.37 35.51 182.23 34.66C183.09 33.82 184.1 33.39 185.24 33.39C186.38 33.39 187.44 33.81 188.3 34.66C189.16 35.5 189.59 36.52 189.59 37.7C189.59 38.88 189.16 39.9 188.3 40.76C187.44 41.62 186.42 42.05 185.24 42.05Z" fill="black"/>
<path d="M110.28 79.06H106.23C105.55 79.06 105.1 78.84 104.86 78.4C104.83 78.27 104.79 78.13 104.76 77.99C104.73 77.86 104.71 77.7 104.71 77.53V61.93L101.11 62.13C100.57 62.16 100.2 62.03 100 61.72C99.8002 61.41 99.7002 61.03 99.7002 60.56V56.51C99.7002 56.38 99.7002 56.26 99.7302 56.16C99.7502 56.06 99.7902 55.96 99.8602 55.86C100.1 55.18 100.62 54.83 101.43 54.8L104.72 54.6V52.93C104.72 52.59 104.72 52.26 104.75 51.94C104.77 51.62 104.79 51.31 104.83 51C105.24 48.06 106.42 45.78 108.38 44.16C110.34 42.54 112.79 41.83 115.72 42.03L116.48 42.08L117.19 42.13C117.32 42.13 117.46 42.13 117.6 42.16C117.73 42.18 117.85 42.2 117.95 42.24C118.63 42.44 118.98 42.88 119.01 43.56C119.04 43.66 119.05 43.79 119.04 43.94C119.02 44.09 119 44.25 118.96 44.42L118.3 47.81C118.23 48.25 118.06 48.56 117.79 48.75C117.52 48.94 117.15 49.01 116.68 48.98L115.21 48.88C113.86 48.78 112.97 49.11 112.55 49.87C112.13 50.63 111.88 51.7 111.82 53.09V54.15L117.59 53.8C118.16 53.77 118.54 53.9 118.73 54.21C118.92 54.51 119.01 54.9 119.01 55.38V59.43C119.01 59.9 118.85 60.3 118.53 60.62C118.21 60.94 117.8 61.12 117.29 61.15L111.82 61.5V77.56C111.82 78.07 111.69 78.45 111.44 78.7C111.19 78.95 110.81 79.08 110.3 79.08L110.28 79.06ZM133.42 79.67C130.79 79.67 128.51 79.09 126.61 77.92C124.7 76.76 123.24 75.18 122.23 73.18C121.22 71.19 120.71 68.93 120.71 66.39C120.71 63.85 121.22 61.59 122.23 59.58C123.24 57.57 124.7 55.99 126.61 54.84C128.52 53.69 130.79 53.12 133.42 53.12C136.05 53.12 138.32 53.69 140.21 54.84C142.1 55.99 143.56 57.57 144.59 59.58C145.62 61.59 146.13 63.86 146.13 66.39C146.13 68.92 145.61 71.19 144.59 73.18C143.56 75.17 142.1 76.75 140.21 77.92C138.32 79.08 136.06 79.67 133.42 79.67ZM133.42 72.32C134.97 72.32 136.3 71.87 137.4 70.98C138.5 70.09 139.05 68.56 139.05 66.4C139.05 64.24 138.5 62.71 137.4 61.82C136.3 60.93 134.98 60.48 133.42 60.48C131.86 60.48 130.54 60.93 129.44 61.82C128.34 62.72 127.79 64.24 127.79 66.4C127.79 68.56 128.34 70.09 129.44 70.98C130.54 71.88 131.86 72.32 133.42 72.32ZM160.98 79.67C158.35 79.67 156.07 79.09 154.17 77.92C152.26 76.76 150.8 75.18 149.79 73.18C148.78 71.19 148.27 68.93 148.27 66.39C148.27 63.85 148.78 61.59 149.79 59.58C150.8 57.57 152.26 55.99 154.17 54.84C156.08 53.69 158.35 53.12 160.98 53.12C163.61 53.12 165.88 53.69 167.77 54.84C169.66 55.99 171.12 57.57 172.15 59.58C173.18 61.59 173.69 63.86 173.69 66.39C173.69 68.92 173.17 71.19 172.15 73.18C171.12 75.17 169.66 76.75 167.77 77.92C165.88 79.08 163.62 79.67 160.98 79.67ZM160.98 72.32C162.53 72.32 163.86 71.87 164.96 70.98C166.06 70.09 166.61 68.56 166.61 66.4C166.61 64.24 166.06 62.71 164.96 61.82C163.86 60.93 162.54 60.48 160.98 60.48C159.42 60.48 158.1 60.93 157 61.82C155.9 62.72 155.35 64.24 155.35 66.4C155.35 68.56 155.9 70.09 157 70.98C158.1 71.88 159.42 72.32 160.98 72.32ZM198.66 80.07H195.62C194.27 80.07 193.59 79.39 193.59 78.04V76.17C192.71 77.12 191.66 77.83 190.42 78.32C189.19 78.81 187.88 79.05 186.49 79.05C184.53 79.05 182.74 78.52 181.12 77.45C179.5 76.38 178.21 74.88 177.25 72.92C176.29 70.96 175.81 68.68 175.81 66.08C175.81 63.48 176.38 61.12 177.51 59.19C178.64 57.27 180.17 55.77 182.09 54.71C184.01 53.65 186.16 53.11 188.52 53.11C189.4 53.11 190.25 53.16 191.08 53.26C191.91 53.36 192.74 53.51 193.59 53.72V44.6C193.59 43.25 194.27 42.57 195.62 42.57H198.66C200.01 42.57 200.69 43.25 200.69 44.6V78.03C200.69 79.38 200.01 80.06 198.66 80.06V80.07ZM187.97 71.71C189.15 71.71 190.16 71.45 191.01 70.92C191.85 70.4 192.5 69.63 192.93 68.62C193.37 67.61 193.59 66.39 193.59 64.97V61.17C192.85 60.9 192.06 60.71 191.23 60.59C190.4 60.47 189.5 60.41 188.52 60.41C186.9 60.41 185.56 60.88 184.49 61.83C183.43 62.78 182.89 64.19 182.89 66.08C182.89 67.16 183.1 68.13 183.52 68.99C183.94 69.85 184.53 70.52 185.29 70.99C186.05 71.46 186.94 71.7 187.95 71.7L187.97 71.71Z" fill="url(#paint1_linear_46_3221)"/>
<path d="M174.17 4.77C181.07 4.3 181.33 12.37 176.78 14.55C174.47 15.66 172.51 14.5 171.85 13.89C170.52 12.65 169.36 11.3 171.7 9.59C173.4 8.34 173.22 11.72 176.59 9.66C178.49 8.5 177.71 5.72 174.17 4.77Z" fill="url(#paint2_linear_46_3221)"/>
<path d="M44.1 49.13C44.14 48.01 45.35 46.41 45.32 46.26C45.28 46.08 42.61 44.84 42.1 44.5C41.22 43.92 39.43 42.17 38.75 41.88C38.46 41.76 34.26 40.62 34.04 40.72C33.86 40.81 32.96 43.01 32.83 43.38C31.13 47.9 29.96 55.8 33.99 59.45C35.19 60.54 36.66 60.76 37.74 62.11C38.82 63.46 39.02 65.16 39.77 66.59C41.01 68.95 40.66 67.69 41.4 66.64C43.1 64.23 44.93 65.33 46.33 62.51C47.41 60.34 47.37 57.97 46.02 55.93C43.77 52.51 40.4 54.02 37.75 51.83C37.09 51.29 35.15 48.7 36.21 47.98C37.09 47.38 37.44 48.85 37.91 49.35C38.99 50.48 41.15 51.5 42.72 51.5C43 51.5 44.58 51.56 44.65 51.5C44.75 51.42 44.07 49.82 44.1 49.13Z" fill="url(#paint3_linear_46_3221)"/>
<path d="M52.0502 58.73C51.4502 59.4 49.3002 60.76 49.2002 60.91C48.9302 61.31 48.8202 63.22 48.1802 63.75C51.0902 63.75 53.8802 61.98 54.0402 58.84C54.0402 58.65 53.9302 56.33 53.4902 56.57C53.3802 56.63 52.4202 58.33 52.0502 58.73Z" fill="url(#paint4_linear_46_3221)"/>
<path d="M60.7202 61.77C60.6502 62.12 57.7102 67.64 57.3702 68.14C54.6102 72.22 46.7002 71.72 42.1602 71.27C36.5502 70.71 38.6902 64.24 33.4902 62.05C29.0502 60.18 24.9202 63.33 23.4402 67.46C23.2702 67.92 22.4302 70.71 22.6702 70.94C23.1502 71.41 34.4702 70.6 36.0702 71.07C37.5402 72.06 35.7802 72.3 35.7102 72.37C35.4702 72.64 36.4502 73.24 36.6702 73.34C38.2102 74 52.5902 73.88 54.3002 73.24C59.5802 71.25 58.3402 61.95 65.0802 61.33C64.2102 60.13 62.6902 54.01 62.0002 53.35C61.8002 53.16 59.2402 52.61 59.1202 52.72C58.7902 53.04 61.1602 59.66 60.7302 61.78L60.7202 61.77Z" fill="url(#paint5_linear_46_3221)"/>
<path d="M66.1301 67.18C67.3701 67.02 73.8301 67.32 74.1301 67.07C74.8801 66.44 70.7001 63.73 70.0201 63.51C63.3101 61.36 60.8701 66.26 59.3301 71.71C61.7301 69.62 62.6501 67.63 66.1201 67.19L66.1301 67.18Z" fill="url(#paint6_linear_46_3221)"/>
<path d="M54.6998 44.2C54.6198 44.29 55.1698 46.13 55.3198 46.18C55.4698 46.23 57.6498 45.31 58.1198 45.52C57.7298 45.41 54.8198 44.06 54.6998 44.2Z" fill="url(#paint7_linear_46_3221)"/>
<path d="M17.8602 37.26C14.9902 33.57 10.3202 32.1 5.80019 33.36C2.80019 34.19 3.90019 34.03 5.28019 34.93C9.05019 37.4 8.80019 41.9 7.65019 45.76L10.5202 40.79C12.9902 45.48 9.15019 50.78 12.8402 55.15V42.17C12.8402 41.24 14.1402 39.46 15.1002 39.46C15.6402 39.46 19.0802 39.59 19.2402 39.46C19.3402 39.38 17.9802 37.43 17.8502 37.26H17.8602Z" fill="#F37722"/>
<path d="M29.5202 58.67C29.5602 58.45 28.7502 57.9 28.6902 57.9H15.9302C20.0202 60.58 25.0402 59.39 29.5102 58.67H29.5202Z" fill="url(#paint8_linear_46_3221)"/>
<path d="M29.2998 49.28L31.0598 41.33H29.2998V49.28Z" fill="#5A57A5"/>
<path d="M60.2502 14.08C60.3102 14.28 61.8102 15.97 62.1002 16.26C62.9202 14.77 62.4602 4.59 61.5502 4C60.8302 3.54 55.6902 9.88 55.8102 10.57C55.8202 10.64 56.9702 11.28 57.0602 11.27C57.4302 11.22 58.5402 9.32 59.4302 9.77C60.1902 10.15 60.0702 13.47 60.2502 14.08Z" fill="url(#paint9_linear_46_3221)"/>
<path d="M48.1298 55.47C48.4698 56.08 49.0698 58.43 49.2298 58.45C49.7698 58.51 53.0998 53.52 52.8198 52.87C52.7898 52.79 51.5398 53.08 51.1098 53.04C50.5498 52.99 49.9698 52.65 49.3598 52.64C49.0498 52.64 46.5998 53.14 46.5298 53.26C46.4598 53.37 47.9198 55.09 48.1298 55.47Z" fill="white"/>
<path d="M52.71 45.75L51.42 42.54L43.21 42.99C45.76 45.55 49.44 45.12 52.71 45.75Z" fill="white"/>
<path d="M67.1798 75.52C65.8498 76.54 64.2598 75.66 63.5298 74.36C64.2198 79.49 70.8598 76.74 68.8198 72.33C68.6898 72.05 67.5298 70.67 67.2898 70.94C67.1198 71.12 68.7398 74.33 67.1798 75.52Z" fill="white"/>
<path d="M63.5499 70.41C63.5399 70.6 64.9699 73.69 65.0999 73.84C66.9499 75.86 65.3199 69.88 64.9099 69.73C64.7499 69.67 63.5699 70.11 63.5499 70.41Z" fill="white"/>
<path d="M28.2599 73.8C28.1499 73.65 27.3499 73.66 27.3099 73.7C26.9399 74.06 27.8199 76.03 28.1499 76.45C29.7499 78.51 32.3299 77.83 33.2799 75.58C32.1499 75.39 30.0299 75.84 29.0299 75.58C28.1599 75.36 28.4399 74.03 28.2599 73.81V73.8Z" fill="white"/>
</g>
<defs>
<linearGradient id="paint0_linear_46_3221" x1="16.6898" y1="40.65" x2="25.9598" y2="56.69" gradientUnits="userSpaceOnUse">
<stop stop-color="#5A57A5"/>
<stop offset="1" stop-color="#463794"/>
</linearGradient>
<linearGradient id="paint1_linear_46_3221" x1="134.25" y1="29.06" x2="172.63" y2="95.53" gradientUnits="userSpaceOnUse">
<stop stop-color="#5A57A5"/>
<stop offset="1" stop-color="#463794"/>
</linearGradient>
<linearGradient id="paint2_linear_46_3221" x1="172.57" y1="5.7" x2="177.46" y2="14.18" gradientUnits="userSpaceOnUse">
<stop stop-color="#F37722"/>
<stop offset="1" stop-color="#B15526"/>
</linearGradient>
<linearGradient id="paint3_linear_46_3221" x1="32.85" y1="41.4" x2="46.3" y2="64.7" gradientUnits="userSpaceOnUse">
<stop stop-color="#F37722"/>
<stop offset="1" stop-color="#B15526"/>
</linearGradient>
<linearGradient id="paint4_linear_46_3221" x1="50.0002" y1="58.59" x2="52.2502" y2="62.47" gradientUnits="userSpaceOnUse">
<stop stop-color="#F37722"/>
<stop offset="1" stop-color="#B15526"/>
</linearGradient>
<linearGradient id="paint5_linear_46_3221" x1="38.7502" y1="55.91" x2="50.1802" y2="75.69" gradientUnits="userSpaceOnUse">
<stop stop-color="#5A57A5"/>
<stop offset="1" stop-color="#463794"/>
</linearGradient>
<linearGradient id="paint6_linear_46_3221" x1="63.7301" y1="63.93" x2="67.6901" y2="70.79" gradientUnits="userSpaceOnUse">
<stop stop-color="#5A57A5"/>
<stop offset="1" stop-color="#463794"/>
</linearGradient>
<linearGradient id="paint7_linear_46_3221" x1="55.4898" y1="43.75" x2="56.9198" y2="46.22" gradientUnits="userSpaceOnUse">
<stop stop-color="#F37722"/>
<stop offset="1" stop-color="#B15526"/>
</linearGradient>
<linearGradient id="paint8_linear_46_3221" x1="20.8702" y1="55.05" x2="24.6002" y2="61.51" gradientUnits="userSpaceOnUse">
<stop stop-color="#F37722"/>
<stop offset="1" stop-color="#B15526"/>
</linearGradient>
<linearGradient id="paint9_linear_46_3221" x1="57.9202" y1="5.95" x2="63.4302" y2="15.49" gradientUnits="userSpaceOnUse">
<stop stop-color="#F37722"/>
<stop offset="1" stop-color="#B15526"/>
</linearGradient>
<clipPath id="clip0_46_3221">
<rect width="200.69" height="82.88" fill="white"/>
</clipPath>
</defs>
</svg>
